<svg xmlns:rdf="http://www.w3.org/1999/02/22-rdf-syntax-ns#" xmlns="http://www.w3.org/2000/svg" xml:space="preserve" height="74.9px" width="271.5px" version="1.1" y="0px" x="0px" xmlns:cc="http://creativecommons.org/ns#" enable-background="new 0 0 271.503 74.9" viewBox="0 0 271.503 74.9" xmlns:dc="http://purl.org/dc/elements/1.1/">
	<circle cy="37.45" cx="36.973" r="28.563" fill="#00933C"/>
		<path d="m44.466 45.599h-3.158v6.279h-5.602v-6.279h-11.2v-4.841l10.44-17.279h6.36v17.76h3.158l0.002 4.36zm-8.76-4.36c0-6.88 0.12-11.32 0.12-12.2h-0.08l-7.12 12.2h7.08z" fill="#fff"/>
	<circle cy="37.45" cx="102.51" r="28.563" fill="#00933C"/>
		<path d="m97.587 34.505c1.039-0.72 2.319-1.56 5.079-1.56 3.802 0 8.602 2.64 8.602 9.16 0 3.881-1.96 10.2-10.32 10.2-4.439 0-8.96-2.641-9.24-8.359h5.601c0.24 2.319 1.479 3.88 3.96 3.88 2.68 0 4.24-2.28 4.24-5.32 0-2.52-1.2-5.08-4.16-5.08-0.76 0-2.681 0.04-3.76 2.04l-5-0.239 1.96-15.601h15.6v4.721h-11.56l-1.003 6.158z" fill="#fff"/>
	<circle cy="37.45" cx="168.04" r="28.563" fill="#00933C"/>
		<path d="m171.41 29.917c-0.159-1.6-1.199-2.72-3.279-2.72-3.641 0-4.48 4.16-4.681 7.84l0.08 0.08c0.761-1.04 2.16-2.36 5.32-2.36 5.88 0 8.681 4.521 8.681 8.761 0 6.198-3.801 10.358-9.279 10.358-8.601 0-10.28-7.2-10.28-14.278 0-5.4 0.72-14.881 10.56-14.881 1.161 0 4.4 0.44 5.801 1.841 1.56 1.52 2.119 2.359 2.64 5.359h-5.56zm-3.56 7.32c-2.12 0-4.28 1.32-4.28 4.88 0 3.08 1.761 5.28 4.44 5.28 2.04 0 3.92-1.562 3.92-5.4 0-3.6-2.32-4.76-4.08-4.76z" fill="#fff"/>
	<rect y="-.154" width="74.9" fill="none" x="196.05" height="74.9"/>
		<rect transform="matrix(-.7071 .7071 -.7071 -.7071 424.57 -101.26)" height="48.903" width="48.902" y="12.847" x="208.8" fill="#00933C"/>
	<path d="m236.39 29.763c-0.159-1.6-1.199-2.72-3.279-2.72-3.641 0-4.48 4.16-4.681 7.84l0.08 0.08c0.761-1.04 2.16-2.36 5.32-2.36 5.88 0 8.681 4.521 8.681 8.761 0 6.198-3.801 10.358-9.279 10.358-8.601 0-10.28-7.2-10.28-14.278 0-5.4 0.72-14.881 10.56-14.881 1.161 0 4.4 0.44 5.801 1.841 1.56 1.52 2.119 2.359 2.64 5.359h-5.56zm-3.56 7.321c-2.12 0-4.28 1.32-4.28 4.88 0 3.08 1.761 5.28 4.44 5.28 2.04 0 3.92-1.562 3.92-5.4 0-3.6-2.32-4.76-4.08-4.76z" fill="#fff"/>
</svg>
